<svg width="39" height="26" viewBox="0 0 39 26" fill="none" xmlns="http://www.w3.org/2000/svg">
<g clip-path="url(#clip0)">
<path d="M38.762 12.617L26.5745 4.49196C26.2571 4.28035 25.7429 4.28035 25.4256 4.49196C25.1082 4.70356 25.1082 5.04633 25.4256 5.25789L36.2261 12.4583H0.812525C0.363416 12.4583 0 12.7005 0 12.9999C0 13.2994 0.363416 13.5416 0.812525 13.5416H36.2261L25.4256 20.742C25.1082 20.9536 25.1082 21.2963 25.4256 21.5079C25.5842 21.6137 25.7922 21.6666 26.0001 21.6666C26.2079 21.6666 26.4158 21.6137 26.5745 21.5079L38.762 13.3829C39.0794 13.1713 39.0794 12.8286 38.762 12.617Z" fill="white"/>
</g>
<defs>
<clipPath id="clip0">
<rect width="39" height="26" fill="white"/>
</clipPath>
</defs>
</svg>
