 <svg xmlns="http://www.w3.org/2000/svg">

   <symbol id="insta" viewBox="0 0 26 25">
     <g>
       <path
         d="M13.37 0C9.97244 0 9.54902 0.0164057 8.21937 0.072654C6.88426 0.138277 5.98116 0.345302 5.18431 0.654667C4.35033 0.969517 3.59504 1.46247 2.9711 2.09915C2.33264 2.72163 1.83942 3.47734 1.52662 4.31237C1.21725 5.10922 1.01023 6.01231 0.944602 7.34743C0.884448 8.67785 0.871948 9.1005 0.871948 12.498C0.871948 15.8956 0.888354 16.319 0.944602 17.6487C1.01023 18.9799 1.21725 19.8869 1.52662 20.6837C1.84147 21.5177 2.33441 22.273 2.9711 22.8969C3.59358 23.5354 4.34929 24.0286 5.18431 24.3414C5.98116 24.6469 6.88817 24.8578 8.21937 24.9234C9.5498 24.9836 9.97244 24.9961 13.37 24.9961C16.7675 24.9961 17.191 24.9797 18.5206 24.9234C19.8518 24.8578 20.7588 24.6461 21.5557 24.3414C22.3897 24.0266 23.145 23.5336 23.7689 22.8969C24.4082 22.2751 24.9015 21.5192 25.2134 20.6837C25.5188 19.8869 25.7298 18.9799 25.7954 17.6487C25.8555 16.3182 25.868 15.8956 25.868 12.498C25.868 9.1005 25.8516 8.67707 25.7954 7.34743C25.7298 6.01622 25.5181 5.10453 25.2134 4.31237C24.8985 3.47838 24.4056 2.72309 23.7689 2.09915C23.1471 1.45987 22.3912 0.966516 21.5557 0.654667C20.7588 0.345302 19.8518 0.138277 18.5206 0.072654C17.1902 0.0124996 16.7675 0 13.37 0ZM13.37 2.24993C16.7066 2.24993 17.105 2.26634 18.4237 2.32258C19.6401 2.37961 20.3026 2.58273 20.7424 2.7546C21.2862 2.95532 21.7783 3.27478 22.183 3.68973C22.5972 4.09271 22.9155 4.58372 23.1142 5.1264C23.2861 5.56623 23.4892 6.22871 23.5462 7.44508C23.6025 8.76379 23.6189 9.16299 23.6189 12.4988C23.6189 15.8347 23.6025 16.2339 23.5416 17.5526C23.4759 18.7689 23.2728 19.4314 23.1017 19.8713C22.865 20.458 22.601 20.8681 22.165 21.3118C21.759 21.7242 21.2672 22.0421 20.7245 22.2431C20.2901 22.4149 19.6182 22.618 18.3972 22.6751C17.0714 22.7313 16.6808 22.7477 13.3356 22.7477C9.99041 22.7477 9.60058 22.7313 8.27328 22.6704C7.05691 22.6048 6.38584 22.4016 5.94601 22.2306C5.35228 21.9938 4.94526 21.7298 4.50933 21.2939C4.0695 20.854 3.78983 20.4353 3.57421 19.8533C3.39921 19.4189 3.19922 18.7471 3.13438 17.526C3.08985 16.2159 3.06875 15.8097 3.06875 12.4801C3.06875 9.15206 3.08985 8.74504 3.13438 7.41852C3.19922 6.19746 3.39921 5.52717 3.57421 5.09125C3.78983 4.49673 4.07029 4.0905 4.50933 3.65067C4.94448 3.21552 5.35228 2.93428 5.94601 2.71398C6.38584 2.54289 7.04051 2.33977 8.26156 2.27884C9.5873 2.23118 9.97791 2.21399 13.3184 2.21399L13.37 2.24993ZM13.37 6.0834C12.5273 6.0831 11.6928 6.24885 10.9143 6.57118C10.1357 6.89352 9.42823 7.36612 8.83237 7.96198C8.23651 8.55784 7.7639 9.26528 7.44157 10.0439C7.11923 10.8225 6.95348 11.6569 6.95379 12.4996C6.95348 13.3423 7.11923 14.1768 7.44157 14.9553C7.7639 15.7339 8.23651 16.4414 8.83237 17.0372C9.42823 17.6331 10.1357 18.1057 10.9143 18.428C11.6928 18.7504 12.5273 18.9161 13.37 18.9158C14.2127 18.9161 15.0471 18.7504 15.8257 18.428C16.6043 18.1057 17.3118 17.6331 17.9076 17.0372C18.5035 16.4414 18.9761 15.7339 19.2984 14.9553C19.6208 14.1768 19.7865 13.3423 19.7862 12.4996C19.7865 11.6569 19.6208 10.8225 19.2984 10.0439C18.9761 9.26528 18.5035 8.55784 17.9076 7.96198C17.3118 7.36612 16.6043 6.89352 15.8257 6.57118C15.0471 6.24885 14.2127 6.0831 13.37 6.0834ZM13.37 16.6659C11.0669 16.6659 9.20372 14.8027 9.20372 12.4996C9.20372 10.1966 11.0669 8.33333 13.37 8.33333C15.673 8.33333 17.5363 10.1966 17.5363 12.4996C17.5363 14.8027 15.673 16.6659 13.37 16.6659ZM21.5447 5.82716C21.5443 6.22532 21.3859 6.60704 21.1042 6.88844C20.8225 7.16983 20.4406 7.3279 20.0424 7.3279C19.8456 7.3279 19.6506 7.28912 19.4687 7.21378C19.2868 7.13844 19.1216 7.02801 18.9824 6.8888C18.8432 6.74959 18.7327 6.58432 18.6574 6.40243C18.582 6.22054 18.5433 6.0256 18.5433 5.82872C18.5433 5.63185 18.582 5.4369 18.6574 5.25502C18.7327 5.07313 18.8432 4.90786 18.9824 4.76865C19.1216 4.62944 19.2868 4.51901 19.4687 4.44367C19.6506 4.36833 19.8456 4.32955 20.0424 4.32955C20.8682 4.32955 21.5447 5.00141 21.5447 5.82716Z" />
     </g>
   </symbol>

   <symbol id="vk" viewBox="0 0 26 25">
     <g>
       <path
         d="M16.773 0H9.09905C2.09614 0 0.436035 1.6601 0.436035 8.66301V16.337C0.436035 23.3399 2.09614 25 9.09905 25H16.773C23.7759 25 25.436 23.3399 25.436 16.337V8.66301C25.436 1.6601 23.7595 0 16.773 0ZM20.6182 17.8338H18.8034C18.116 17.8338 17.9042 17.2885 16.6676 16.0354C15.5934 14.9941 15.1176 14.8558 14.8528 14.8558C14.4786 14.8558 14.3723 14.9613 14.3723 15.4745V17.1143C14.3723 17.5541 14.234 17.8182 13.07 17.8182C11.1451 17.8182 9.0092 16.6542 7.5116 14.4855C5.25307 11.3075 4.63512 8.92706 4.63512 8.43489C4.63512 8.17006 4.74059 7.92241 5.24917 7.92241H7.06786C7.528 7.92241 7.703 8.13412 7.8819 8.62629C8.78109 11.2223 10.2787 13.4965 10.8966 13.4965C11.1248 13.4965 11.2302 13.391 11.2302 12.809V10.1278C11.1607 8.89113 10.5099 8.78488 10.5099 8.34583C10.5099 8.13412 10.6849 7.92241 10.9654 7.92241H13.8255C14.2122 7.92241 14.3544 8.13412 14.3544 8.58958V12.2067C14.3544 12.5973 14.5293 12.7355 14.6348 12.7355C14.8629 12.7355 15.0582 12.5973 15.4809 12.1738C16.7871 10.709 17.723 8.45052 17.723 8.45052C17.8449 8.18568 18.0566 7.93803 18.5167 7.93803H20.3354C20.8807 7.93803 21.0026 8.21849 20.8807 8.60911C20.6526 9.66689 18.4269 12.8082 18.4269 12.8082C18.2355 13.1254 18.162 13.2636 18.4269 13.6175C18.6222 13.8824 19.2573 14.4316 19.68 14.9238C20.4573 15.8065 21.0549 16.5471 21.2143 17.0596C21.3932 17.5682 21.1291 17.833 20.6159 17.833L20.6182 17.8338Z" />
     </g>
   </symbol>

   <symbol id="fb" viewBox="0 0 25 25">
     <g>
       <path
         d="M4.5647 0C2.03606 0 0 2.03606 0 4.5647V20.4345C0 22.9631 2.03606 24.9992 4.5647 24.9992H13.166V15.2261H10.5817V11.7074H13.166V8.70129C13.166 6.33949 14.6929 4.17096 18.2103 4.17096C19.6345 4.17096 20.6876 4.30768 20.6876 4.30768L20.6048 7.59352C20.6048 7.59352 19.5308 7.58337 18.3588 7.58337C17.0903 7.58337 16.8869 8.1678 16.8869 9.13802V11.7075H20.7056L20.5392 15.2261H16.8869V24.9992H20.4345C22.9631 24.9992 24.9992 22.9632 24.9992 20.4345V4.56472C24.9992 2.03608 22.9631 2.49992e-05 20.4345 2.49992e-05H4.56467L4.5647 0Z" />
     </g>
   </symbol>

   <symbol id="icon-vk" viewBox="0 0 28 17">
     <g>
       <path
         d="M26.9211 1.13657C27.1136 0.497196 26.9211 0.0283203 26.0109 0.0283203H22.9955C22.2283 0.0283203 21.8776 0.433946 21.6851 0.879446C21.6851 0.879446 20.152 4.61807 17.9795 7.04219C17.2782 7.74757 16.9579 7.97032 16.5756 7.97032C16.3845 7.97032 16.1068 7.74757 16.1068 7.10819V1.13657C16.1068 0.369321 15.8854 0.0283203 15.246 0.0283203H10.5078C10.0293 0.0283203 9.7405 0.383071 9.7405 0.721321C9.7405 1.44732 10.8267 1.61507 10.9381 3.66107V8.09957C10.9381 9.07169 10.7635 9.24907 10.3785 9.24907C9.35688 9.24907 6.87087 5.4967 5.3955 1.2012C5.10812 0.366571 4.818 0.0296959 4.048 0.0296959H1.034C0.171875 0.0296959 0 0.435321 0 0.880821C0 1.68107 1.02163 5.64107 4.75887 10.8784C7.25037 14.4548 10.758 16.3936 13.9535 16.3936C15.8689 16.3936 16.1054 15.9632 16.1054 15.2207V12.5174C16.1054 11.6567 16.2882 11.4834 16.8946 11.4834C17.3401 11.4834 18.1074 11.7089 19.8962 13.4318C21.9395 15.4751 22.2778 16.3922 23.4259 16.3922H26.4399C27.3006 16.3922 27.731 15.9618 27.4835 15.1121C27.2126 14.2664 26.2364 13.0358 24.9411 11.5797C24.2371 10.7492 23.1852 9.85544 22.8649 9.40857C22.418 8.83245 22.5472 8.57807 22.8649 8.06657C22.8662 8.06795 26.5389 2.8952 26.9211 1.13657Z" />
     </g>
   </symbol>

   <symbol id="icon-insta" viewBox="0 0 25 24">
     <g>
       <path
         d="M12.75 5.70204C9.31399 5.70204 6.54094 8.38564 6.54094 11.7108C6.54094 15.036 9.31399 17.7196 12.75 17.7196C16.1861 17.7196 18.9591 15.036 18.9591 11.7108C18.9591 8.38564 16.1861 5.70204 12.75 5.70204ZM12.75 15.6161C10.528 15.6161 8.71457 13.8612 8.71457 11.7108C8.71457 9.56044 10.528 7.80556 12.75 7.80556C14.9721 7.80556 16.7855 9.56044 16.7855 11.7108C16.7855 13.8612 14.9721 15.6161 12.75 15.6161ZM19.2134 4.05556C18.4112 4.05556 17.7633 4.68251 17.7633 5.45888C17.7633 6.23525 18.4112 6.8622 19.2134 6.8622C20.0156 6.8622 20.6635 6.23818 20.6635 5.45888C20.6637 5.27453 20.6264 5.09194 20.5536 4.92158C20.4808 4.75122 20.374 4.59642 20.2393 4.46607C20.1046 4.33571 19.9447 4.23235 19.7686 4.16191C19.5926 4.09147 19.4039 4.05533 19.2134 4.05556ZM24.8533 11.7108C24.8533 10.0936 24.8685 8.49111 24.7746 6.87685C24.6808 5.00185 24.2388 3.33779 22.822 1.96669C21.4022 0.592668 19.6857 0.167864 17.7482 0.0770433C16.0771 -0.0137771 14.4211 0.000871419 12.753 0.000871419C11.082 0.000871419 9.426 -0.0137771 7.75793 0.0770433C5.82043 0.167864 4.1009 0.595598 2.6841 1.96669C1.26428 3.34072 0.825314 5.00185 0.731467 6.87685C0.637619 8.49404 0.652756 10.0966 0.652756 11.7108C0.652756 13.3251 0.637619 14.9306 0.731467 16.5448C0.825314 18.4198 1.26731 20.0839 2.6841 21.455C4.10393 22.829 5.82043 23.2538 7.75793 23.3446C9.42903 23.4354 11.085 23.4208 12.753 23.4208C14.4241 23.4208 16.0801 23.4354 17.7482 23.3446C19.6857 23.2538 21.4052 22.8261 22.822 21.455C24.2418 20.081 24.6808 18.4198 24.7746 16.5448C24.8715 14.9306 24.8533 13.328 24.8533 11.7108ZM22.1893 18.619C21.9683 19.1522 21.7019 19.5507 21.275 19.9608C20.8482 20.3739 20.4395 20.6317 19.8885 20.8456C18.2961 21.4579 14.515 21.3202 12.75 21.3202C10.9851 21.3202 7.2009 21.4579 5.60852 20.8485C5.05754 20.6347 4.64582 20.3769 4.22199 19.9638C3.79514 19.5507 3.52873 19.1552 3.30774 18.622C2.67805 17.078 2.82033 13.4188 2.82033 11.7108C2.82033 10.0028 2.67805 6.34072 3.30774 4.7997C3.52873 4.2665 3.79514 3.86806 4.22199 3.4579C4.64885 3.04775 5.05754 2.787 5.60852 2.57314C7.2009 1.96376 10.9851 2.10146 12.75 2.10146C14.515 2.10146 18.2991 1.96376 19.8915 2.57314C20.4425 2.787 20.8542 3.04482 21.2781 3.4579C21.7049 3.87099 21.9713 4.2665 22.1923 4.7997C22.822 6.34072 22.6797 10.0028 22.6797 11.7108C22.6797 13.4188 22.822 17.078 22.1893 18.619Z" />
     </g>
   </symbol>

   <symbol id="icon-twitter" viewBox="0 0 24 19">
     <g>
       <path
         d="M23.625 2.66446C22.7883 3.0254 21.8777 3.28517 20.9398 3.38634C21.9136 2.80784 22.6428 1.89392 22.9906 0.816027C22.0769 1.35959 21.0759 1.74075 20.032 1.94259C19.5957 1.47618 19.0681 1.10461 18.4819 0.851047C17.8957 0.597482 17.2636 0.467351 16.625 0.468761C14.041 0.468761 11.9629 2.56329 11.9629 5.1336C11.9629 5.49454 12.0066 5.85548 12.0777 6.20274C8.20858 6.0004 4.7578 4.15196 2.46366 1.32189C2.04564 2.03587 1.82659 2.84883 1.82928 3.67618C1.82928 5.29493 2.65233 6.72228 3.90741 7.56173C3.16777 7.5326 2.44546 7.3293 1.79921 6.96837V7.02579C1.79921 9.29259 3.40155 11.1711 5.5371 11.6031C5.13612 11.7073 4.72364 11.7606 4.30936 11.7617C4.00585 11.7617 3.71874 11.7317 3.42889 11.6906C4.01952 13.5391 5.73944 14.8817 7.78749 14.9254C6.18514 16.1805 4.17811 16.9188 1.99882 16.9188C1.6078 16.9188 1.24686 16.9051 0.872253 16.8613C2.93944 18.1875 5.39217 18.9531 8.03358 18.9531C16.6086 18.9531 21.3008 11.8492 21.3008 5.68321C21.3008 5.48087 21.3008 5.27853 21.2871 5.07618C22.1949 4.41173 22.9906 3.58868 23.625 2.66446Z" />
     </g>
   </symbol>

   <symbol id="geo" viewBox="0 0 12 16">
     <g>
       <path
         d="M5.38338 15.6772C0.842813 9.09472 0 8.41916 0 6C0 2.68628 2.68628 0 6 0C9.31372 0 12 2.68628 12 6C12 8.41916 11.1572 9.09472 6.61662 15.6772C6.31866 16.1076 5.68131 16.1076 5.38338 15.6772ZM6 8.5C7.38072 8.5 8.5 7.38072 8.5 6C8.5 4.61928 7.38072 3.5 6 3.5C4.61928 3.5 3.5 4.61928 3.5 6C3.5 7.38072 4.61928 8.5 6 8.5Z" />
     </g>
   </symbol>

   <symbol id="phone" width="16" height="16" viewBox="0 0 16 16">
     <g>
       <path
         d="M0.581291 0.769088L3.83129 0.0190879C4.18442 -0.0621621 4.54692 0.122213 4.69067 0.453463L6.19067 3.95346C6.32192 4.25971 6.23442 4.61909 5.97504 4.82846L4.08129 6.37846C5.20629 8.77534 7.17192 10.7691 9.61879 11.916L11.1688 10.0222C11.3813 9.76284 11.7375 9.67534 12.0438 9.80659L15.5438 11.3066C15.8782 11.4535 16.0625 11.816 15.9813 12.1691L15.2313 15.4191C15.1532 15.7566 14.8532 16.0003 14.5 16.0003C6.49692 16.0003 4.00543e-05 9.51596 4.00543e-05 1.50034C4.00543e-05 1.15034 0.240666 0.847213 0.581291 0.769088Z" />
     </g>
   </symbol>

   <symbol id="arr-contact-me" viewBox="0 0 16 10">
     <g>
       <path
         d="M15.9659 1.81537L8.18757 9.59375L0.409196 1.81537L1.38132 0.843247L8.18757 7.6495L14.9938 0.843248L15.9659 1.81537Z" />
     </g>
   </symbol>

   <symbol id="icon-phone" viewBox="0 0 21 20">
     <g>
       <path
         d="M16.2382 20C16.0338 19.9994 15.8301 19.9776 15.6304 19.9348C11.8298 19.1691 8.32834 17.3737 5.52915 14.7553C2.78968 12.1312 0.889716 8.79006 0.0591278 5.13623C-0.0388091 4.68086 -0.0147715 4.20859 0.128928 3.76488C0.272627 3.32117 0.531152 2.92095 0.879631 2.60271L3.31075 0.323725C3.43492 0.209354 3.58246 0.121771 3.74374 0.066692C3.90502 0.0116131 4.07641 -0.00972344 4.24673 0.00407474C4.42333 0.0220183 4.59375 0.0774245 4.746 0.166397C4.89826 0.255369 5.02865 0.375748 5.12801 0.519066L8.16691 4.89354C8.28087 5.06327 8.33588 5.26415 8.32385 5.46662C8.31181 5.66908 8.23337 5.86244 8.10006 6.01823L6.57453 7.79406C7.1821 9.10371 8.04253 10.2874 9.10897 11.2806C10.1685 12.3099 11.4209 13.1317 12.7982 13.7017L14.6884 12.2396C14.8471 12.1174 15.0403 12.0451 15.2423 12.0324C15.4442 12.0197 15.6453 12.0672 15.8189 12.1685L20.4076 15.0572C20.5651 15.1488 20.6992 15.2739 20.8 15.4231C20.9008 15.5724 20.9656 15.7419 20.9896 15.919C21.0135 16.0961 20.9961 16.2761 20.9384 16.4457C20.8808 16.6153 20.7845 16.77 20.6568 16.8982L18.2864 19.1831C18.0172 19.444 17.6976 19.6505 17.3461 19.7907C16.9946 19.9309 16.6181 20.002 16.2382 20ZM4.14949 1.17612L1.71837 3.45511C1.52233 3.63302 1.37721 3.85756 1.29729 4.10665C1.21736 4.35575 1.20539 4.62081 1.26253 4.87578C2.03485 8.3044 3.81017 11.4418 6.37396 13.9088C9.0082 16.3723 12.3032 18.061 15.8796 18.7806C16.1503 18.8357 16.4309 18.8245 16.6961 18.7481C16.9612 18.6716 17.2028 18.5323 17.3991 18.3425L19.7694 16.0576L15.3387 13.2695L13.3087 14.8441C13.231 14.904 13.1394 14.9445 13.042 14.9621C12.9445 14.9796 12.8441 14.9737 12.7496 14.9448C11.064 14.3399 9.53652 13.3798 8.27631 12.133C6.97284 10.9475 5.96105 9.49058 5.31642 7.87102C5.28915 7.77297 5.28825 7.66974 5.31379 7.57125C5.33934 7.47276 5.39048 7.38234 5.46229 7.30867L7.1033 5.39669L4.14949 1.17612Z" />
     </g>
   </symbol>

   <symbol id="icon-mail" viewBox="0 0 24 20">
     <g>
       <path
         d="M19.7 0.88916C20.6283 0.88916 21.5185 1.25791 22.1749 1.91429C22.8313 2.57066 23.2 3.4609 23.2 4.38916V15.5892C23.2 16.5174 22.8313 17.4077 22.1749 18.064C21.5185 18.7204 20.6283 19.0892 19.7 19.0892H4.30005C3.37179 19.0892 2.48155 18.7204 1.82518 18.064C1.1688 17.4077 0.800049 16.5174 0.800049 15.5892V4.38916C0.800049 3.4609 1.1688 2.57066 1.82518 1.91429C2.48155 1.25791 3.37179 0.88916 4.30005 0.88916H19.7ZM21.8 6.43456L12.3556 11.9926C12.2664 12.045 12.1666 12.0769 12.0634 12.0861C11.9603 12.0953 11.8564 12.0816 11.7592 12.0458L11.6444 11.9926L2.20005 6.43736V15.5892C2.20005 16.1461 2.4213 16.6803 2.81512 17.0741C3.20895 17.4679 3.74309 17.6892 4.30005 17.6892H19.7C20.257 17.6892 20.7911 17.4679 21.185 17.0741C21.5788 16.6803 21.8 16.1461 21.8 15.5892V6.43456ZM19.7 2.28916H4.30005C3.74309 2.28916 3.20895 2.51041 2.81512 2.90424C2.4213 3.29806 2.20005 3.83221 2.20005 4.38916V4.81196L12 10.5772L21.8 4.80916V4.38916C21.8 3.83221 21.5788 3.29806 21.185 2.90424C20.7911 2.51041 20.257 2.28916 19.7 2.28916Z" />
     </g>
   </symbol>

   <symbol id="icon-btn-menu"  viewBox="0 0 22 9">
     <g>
       <rect y="4" width="22" height="1" rx="0.5" />
       <rect y="8" width="13" height="1" rx="0.5" />
       <rect width="6" height="1" rx="0.5" />
     </g>
   </symbol>

   <symbol id="template" width="0" height="0" viewbox="0 0 0 0">
     <g>
       <path
         d="M 23 12.3 C 23 6.1 18.1 1 12 1 C 5.9 1 1 6.1 1 12.3 V 27.7 C 1 33.9 5.9 39 12 39 C 18.1 39 23 33.9 23 27.7 V 12.3 Z"
         stroke="white" stroke-width="2" />
       <path d="M 11 10 H 13 V 18 H 11 V 10 Z" />
     </g>
   </symbol>

 </svg>