<svg width="39" height="26" viewBox="0 0 39 26" fill="none" xmlns="http://www.w3.org/2000/svg">
<g clip-path="url(#clip0)">
<path d="M0.238038 13.383L12.4255 21.508C12.7429 21.7196 13.2571 21.7196 13.5744 21.508C13.8918 21.2964 13.8918 20.9537 13.5744 20.7421L2.77387 13.5417L38.1875 13.5417C38.6366 13.5417 39 13.2995 39 13.0001C39 12.7006 38.6366 12.4584 38.1875 12.4584L2.77387 12.4584L13.5744 5.25804C13.8918 5.04644 13.8918 4.70366 13.5744 4.49211C13.4158 4.38633 13.2078 4.33342 13 4.33342C12.7921 4.33342 12.5842 4.38633 12.4255 4.49211L0.237962 12.6171C-0.0793716 12.8287 -0.0793717 13.1714 0.238038 13.383Z" fill="white"/>
</g>
<defs>
<clipPath id="clip0">
<rect width="39" height="26" fill="white" transform="translate(39 26) rotate(-180)"/>
</clipPath>
</defs>
</svg>
