<svg width="76" height="66" viewBox="0 0 76 66" fill="none" xmlns="http://www.w3.org/2000/svg">
<g clip-path="url(#clip0)">
<path d="M75.5361 32.0279L51.7861 11.4029C51.1676 10.8657 50.1656 10.8657 49.5472 11.4029C48.9287 11.94 48.9287 12.8101 49.5472 13.3472L70.5945 31.625H1.58338C0.708195 31.625 0 32.24 0 33.0001C0 33.7601 0.708195 34.3751 1.58338 34.3751H70.5945L49.5472 52.6529C48.9287 53.19 48.9287 54.0601 49.5472 54.5972C49.8564 54.8657 50.2617 55 50.6668 55C51.0719 55 51.4769 54.8657 51.7863 54.5972L75.5363 33.9722C76.1547 33.4351 76.1547 32.565 75.5361 32.0279Z" fill="white"/>
</g>
<defs>
<clipPath id="clip0">
<rect width="76" height="66" fill="white"/>
</clipPath>
</defs>
</svg>
